solid STL generated by MeshLab
  facet normal -0.000000e+00  0.000000e+00 -1.000000e+00
    outer loop
      vertex   2.718936e+00 -1.202599e+00 -3.724991e-09
      vertex   1.202599e+00 -2.718936e+00 -3.724991e-09
      vertex   1.516337e+00 -2.199674e-07 -3.724991e-09
    endloop
  endfacet
  facet normal  1.241088e-05 -1.432095e-06 -1.000000e+00
    outer loop
      vertex   1.202599e+00 -2.718936e+00 -3.724991e-09
      vertex   4.764780e-06 -1.516400e+00 -1.665112e-05
      vertex   1.516337e+00 -2.199674e-07 -3.724991e-09
    endloop
  endfacet
  facet normal  0.000000e+00  0.000000e+00 -1.000000e+00
    outer loop
      vertex  -2.718936e+00  1.202599e+00 -3.724991e-09
      vertex  -1.202599e+00  2.718936e+00 -3.724991e-09
      vertex  -1.516337e+00 -2.199675e-07 -3.724991e-09
    endloop
  endfacet
  facet normal -2.603657e-07  3.004363e-08 -1.000000e+00
    outer loop
      vertex  -1.202599e+00  2.718936e+00 -3.724991e-09
      vertex  -4.019429e-08  1.516338e+00 -3.529709e-07
      vertex  -1.516337e+00 -2.199675e-07 -3.724991e-09
    endloop
  endfacet
  facet normal  1.452047e-07  1.452047e-07 -1.000000e+00
    outer loop
      vertex   1.202599e+00  2.718936e+00 -3.724991e-09
      vertex   2.718936e+00  1.202599e+00 -3.724991e-09
      vertex  -4.019429e-08  1.516338e+00 -3.529709e-07
    endloop
  endfacet
  facet normal  1.151610e-07 -1.151610e-07 -1.000000e+00
    outer loop
      vertex   2.718936e+00  1.202599e+00 -3.724991e-09
      vertex   1.516337e+00 -2.199674e-07 -3.724991e-09
      vertex  -4.019429e-08  1.516338e+00 -3.529709e-07
    endloop
  endfacet
  facet normal  0.000000e+00 -2.303219e-07 -1.000000e+00
    outer loop
      vertex  -4.019429e-08  1.516338e+00 -3.529709e-07
      vertex   1.516337e+00 -2.199674e-07 -3.724991e-09
      vertex  -1.516337e+00 -2.199675e-07 -3.724991e-09
    endloop
  endfacet
  facet normal -3.086585e-19  1.097824e-05 -1.000000e+00
    outer loop
      vertex   1.516337e+00 -2.199674e-07 -3.724991e-09
      vertex   4.764780e-06 -1.516400e+00 -1.665112e-05
      vertex  -1.516337e+00 -2.199675e-07 -3.724991e-09
    endloop
  endfacet
  facet normal -5.489222e-06  5.489222e-06 -1.000000e+00
    outer loop
      vertex  -1.516337e+00 -2.199675e-07 -3.724991e-09
      vertex   4.764780e-06 -1.516400e+00 -1.665112e-05
      vertex  -2.718936e+00 -1.202599e+00 -3.724991e-09
    endloop
  endfacet
  facet normal -6.921589e-06 -6.921589e-06 -1.000000e+00
    outer loop
      vertex   4.764780e-06 -1.516400e+00 -1.665112e-05
      vertex  -1.202599e+00 -2.718936e+00 -3.724991e-09
      vertex  -2.718936e+00 -1.202599e+00 -3.724991e-09
    endloop
  endfacet
  facet normal -6.509628e-01  6.509625e-01  3.905064e-01
    outer loop
      vertex  -3.789411e+00  1.210590e+00 -1.797770e+00
      vertex  -5.000000e+00  2.116163e-07 -1.797770e+00
      vertex  -2.718936e+00  1.202599e+00 -3.724991e-09
    endloop
  endfacet
  facet normal -6.509627e-01  6.509627e-01  3.905063e-01
    outer loop
      vertex  -5.000000e+00  2.116163e-07 -1.797770e+00
      vertex  -2.776447e+00  2.116146e-07  1.908829e+00
      vertex  -2.718936e+00  1.202599e+00 -3.724991e-09
    endloop
  endfacet
  facet normal -6.509627e-01  6.509627e-01  3.905064e-01
    outer loop
      vertex  -2.718936e+00  1.202599e+00 -3.724991e-09
      vertex  -2.776447e+00  2.116146e-07  1.908829e+00
      vertex  -1.202599e+00  2.718936e+00 -3.724991e-09
    endloop
  endfacet
  facet normal -6.509627e-01  6.509627e-01  3.905063e-01
    outer loop
      vertex  -2.776447e+00  2.116146e-07  1.908829e+00
      vertex  -2.307464e-08  2.776447e+00  1.908829e+00
      vertex  -1.202599e+00  2.718936e+00 -3.724991e-09
    endloop
  endfacet
  facet normal -6.509627e-01  6.509627e-01  3.905063e-01
    outer loop
      vertex  -1.202599e+00  2.718936e+00 -3.724991e-09
      vertex  -2.307464e-08  2.776447e+00  1.908829e+00
      vertex  -1.210590e+00  3.789410e+00 -1.797770e+00
    endloop
  endfacet
  facet normal -6.509626e-01  6.509629e-01  3.905063e-01
    outer loop
      vertex  -2.307464e-08  2.776447e+00  1.908829e+00
      vertex  -2.307308e-08  5.000000e+00 -1.797770e+00
      vertex  -1.210590e+00  3.789410e+00 -1.797770e+00
    endloop
  endfacet
  facet normal  0.000000e+00  0.000000e+00 -1.000000e+00
    outer loop
      vertex  -5.000000e+00  2.116163e-07 -1.797770e+00
      vertex  -3.789411e+00  1.210590e+00 -1.797770e+00
      vertex  -3.789410e+00 -1.210590e+00 -1.797770e+00
    endloop
  endfacet
  facet normal  0.000000e+00  0.000000e+00 -1.000000e+00
    outer loop
      vertex  -3.789411e+00  1.210590e+00 -1.797770e+00
      vertex  -2.578821e+00  7.137975e-09 -1.797770e+00
      vertex  -3.789410e+00 -1.210590e+00 -1.797770e+00
    endloop
  endfacet
  facet normal  6.524279e-01 -6.524277e-01 -3.855853e-01
    outer loop
      vertex  -2.578821e+00  7.137975e-09 -1.797770e+00
      vertex  -1.516337e+00 -2.199675e-07 -3.724991e-09
      vertex  -3.789410e+00 -1.210590e+00 -1.797770e+00
    endloop
  endfacet
  facet normal  6.524279e-01 -6.524279e-01 -3.855851e-01
    outer loop
      vertex  -1.516337e+00 -2.199675e-07 -3.724991e-09
      vertex  -2.718936e+00 -1.202599e+00 -3.724991e-09
      vertex  -3.789410e+00 -1.210590e+00 -1.797770e+00
    endloop
  endfacet
  facet normal -6.524278e-01  6.524279e-01 -3.855851e-01
    outer loop
      vertex  -1.210590e+00 -3.789410e+00 -1.797770e+00
      vertex  -1.202599e+00 -2.718936e+00 -3.724991e-09
      vertex  -2.307330e-08 -2.578821e+00 -1.797770e+00
    endloop
  endfacet
  facet normal -6.524153e-01  6.524462e-01 -3.855753e-01
    outer loop
      vertex  -1.202599e+00 -2.718936e+00 -3.724991e-09
      vertex   4.764780e-06 -1.516400e+00 -1.665112e-05
      vertex  -2.307330e-08 -2.578821e+00 -1.797770e+00
    endloop
  endfacet
  facet normal -6.524281e-01 -6.524279e-01 -3.855846e-01
    outer loop
      vertex  -2.307288e-08  2.578820e+00 -1.797770e+00
      vertex  -4.019429e-08  1.516338e+00 -3.529709e-07
      vertex  -1.210590e+00  3.789410e+00 -1.797770e+00
    endloop
  endfacet
  facet normal -6.524275e-01 -6.524281e-01 -3.855852e-01
    outer loop
      vertex  -4.019429e-08  1.516338e+00 -3.529709e-07
      vertex  -1.202599e+00  2.718936e+00 -3.724991e-09
      vertex  -1.210590e+00  3.789410e+00 -1.797770e+00
    endloop
  endfacet
  facet normal -0.000000e+00  0.000000e+00  1.000000e+00
    outer loop
      vertex  -2.776447e+00  2.116146e-07  1.908829e+00
      vertex  -2.307390e-08 -2.776446e+00  1.908829e+00
      vertex  -2.307464e-08  2.776447e+00  1.908829e+00
    endloop
  endfacet
  facet normal  0.000000e+00 -0.000000e+00  1.000000e+00
    outer loop
      vertex  -2.307390e-08 -2.776446e+00  1.908829e+00
      vertex   2.776447e+00  2.116156e-07  1.908829e+00
      vertex  -2.307464e-08  2.776447e+00  1.908829e+00
    endloop
  endfacet
  facet normal  6.524278e-01  6.524278e-01 -3.855851e-01
    outer loop
      vertex  -1.516337e+00 -2.199675e-07 -3.724991e-09
      vertex  -2.578821e+00  7.137975e-09 -1.797770e+00
      vertex  -2.718936e+00  1.202599e+00 -3.724991e-09
    endloop
  endfacet
  facet normal  6.524278e-01  6.524278e-01 -3.855851e-01
    outer loop
      vertex  -2.578821e+00  7.137975e-09 -1.797770e+00
      vertex  -3.789411e+00  1.210590e+00 -1.797770e+00
      vertex  -2.718936e+00  1.202599e+00 -3.724991e-09
    endloop
  endfacet
  facet normal  0.000000e+00  0.000000e+00 -1.000000e+00
    outer loop
      vertex  -1.210590e+00  3.789410e+00 -1.797770e+00
      vertex  -2.307308e-08  5.000000e+00 -1.797770e+00
      vertex  -2.307288e-08  2.578820e+00 -1.797770e+00
    endloop
  endfacet
  facet normal  0.000000e+00  0.000000e+00 -1.000000e+00
    outer loop
      vertex  -2.307308e-08  5.000000e+00 -1.797770e+00
      vertex   1.210590e+00  3.789410e+00 -1.797770e+00
      vertex  -2.307288e-08  2.578820e+00 -1.797770e+00
    endloop
  endfacet
  facet normal  6.524276e-01 -6.524280e-01 -3.855852e-01
    outer loop
      vertex   1.202599e+00  2.718936e+00 -3.724991e-09
      vertex  -4.019429e-08  1.516338e+00 -3.529709e-07
      vertex   1.210590e+00  3.789410e+00 -1.797770e+00
    endloop
  endfacet
  facet normal  6.524280e-01 -6.524280e-01 -3.855847e-01
    outer loop
      vertex  -4.019429e-08  1.516338e+00 -3.529709e-07
      vertex  -2.307288e-08  2.578820e+00 -1.797770e+00
      vertex   1.210590e+00  3.789410e+00 -1.797770e+00
    endloop
  endfacet
  facet normal  0.000000e+00  0.000000e+00 -1.000000e+00
    outer loop
      vertex  -1.210590e+00 -3.789410e+00 -1.797770e+00
      vertex  -2.307330e-08 -2.578821e+00 -1.797770e+00
      vertex  -2.307312e-08 -5.000000e+00 -1.797770e+00
    endloop
  endfacet
  facet normal  0.000000e+00  0.000000e+00 -1.000000e+00
    outer loop
      vertex  -2.307330e-08 -2.578821e+00 -1.797770e+00
      vertex   1.210590e+00 -3.789410e+00 -1.797770e+00
      vertex  -2.307312e-08 -5.000000e+00 -1.797770e+00
    endloop
  endfacet
  facet normal -6.524279e-01 -6.524279e-01 -3.855850e-01
    outer loop
      vertex   1.516337e+00 -2.199674e-07 -3.724991e-09
      vertex   2.578820e+00 -2.199676e-07 -1.797770e+00
      vertex   2.718936e+00 -1.202599e+00 -3.724991e-09
    endloop
  endfacet
  facet normal -6.524278e-01 -6.524279e-01 -3.855851e-01
    outer loop
      vertex   2.578820e+00 -2.199676e-07 -1.797770e+00
      vertex   3.789410e+00 -1.210590e+00 -1.797770e+00
      vertex   2.718936e+00 -1.202599e+00 -3.724991e-09
    endloop
  endfacet
  facet normal  0.000000e+00 -0.000000e+00 -1.000000e+00
    outer loop
      vertex   3.789410e+00  1.210590e+00 -1.797770e+00
      vertex   5.000000e+00  2.116162e-07 -1.797770e+00
      vertex   2.578820e+00 -2.199676e-07 -1.797770e+00
    endloop
  endfacet
  facet normal  0.000000e+00  0.000000e+00 -1.000000e+00
    outer loop
      vertex   5.000000e+00  2.116162e-07 -1.797770e+00
      vertex   3.789410e+00 -1.210590e+00 -1.797770e+00
      vertex   2.578820e+00 -2.199676e-07 -1.797770e+00
    endloop
  endfacet
  facet normal  6.509627e-01 -6.509626e-01  3.905064e-01
    outer loop
      vertex   3.789410e+00 -1.210590e+00 -1.797770e+00
      vertex   5.000000e+00  2.116162e-07 -1.797770e+00
      vertex   2.718936e+00 -1.202599e+00 -3.724991e-09
    endloop
  endfacet
  facet normal  6.509628e-01 -6.509627e-01  3.905063e-01
    outer loop
      vertex   5.000000e+00  2.116162e-07 -1.797770e+00
      vertex   2.776447e+00  2.116156e-07  1.908829e+00
      vertex   2.718936e+00 -1.202599e+00 -3.724991e-09
    endloop
  endfacet
  facet normal  6.509627e-01 -6.509627e-01  3.905064e-01
    outer loop
      vertex   2.718936e+00 -1.202599e+00 -3.724991e-09
      vertex   2.776447e+00  2.116156e-07  1.908829e+00
      vertex   1.202599e+00 -2.718936e+00 -3.724991e-09
    endloop
  endfacet
  facet normal  6.509627e-01 -6.509627e-01  3.905063e-01
    outer loop
      vertex   2.776447e+00  2.116156e-07  1.908829e+00
      vertex  -2.307390e-08 -2.776446e+00  1.908829e+00
      vertex   1.202599e+00 -2.718936e+00 -3.724991e-09
    endloop
  endfacet
  facet normal  6.509627e-01 -6.509627e-01  3.905063e-01
    outer loop
      vertex   1.202599e+00 -2.718936e+00 -3.724991e-09
      vertex  -2.307390e-08 -2.776446e+00  1.908829e+00
      vertex   1.210590e+00 -3.789410e+00 -1.797770e+00
    endloop
  endfacet
  facet normal  6.509625e-01 -6.509628e-01  3.905063e-01
    outer loop
      vertex  -2.307390e-08 -2.776446e+00  1.908829e+00
      vertex  -2.307312e-08 -5.000000e+00 -1.797770e+00
      vertex   1.210590e+00 -3.789410e+00 -1.797770e+00
    endloop
  endfacet
  facet normal -6.524279e-01  6.524278e-01 -3.855850e-01
    outer loop
      vertex   3.789410e+00  1.210590e+00 -1.797770e+00
      vertex   2.578820e+00 -2.199676e-07 -1.797770e+00
      vertex   2.718936e+00  1.202599e+00 -3.724991e-09
    endloop
  endfacet
  facet normal -6.524278e-01  6.524279e-01 -3.855850e-01
    outer loop
      vertex   2.578820e+00 -2.199676e-07 -1.797770e+00
      vertex   1.516337e+00 -2.199674e-07 -3.724991e-09
      vertex   2.718936e+00  1.202599e+00 -3.724991e-09
    endloop
  endfacet
  facet normal  6.509625e-01  6.509628e-01  3.905064e-01
    outer loop
      vertex   1.210590e+00  3.789410e+00 -1.797770e+00
      vertex  -2.307308e-08  5.000000e+00 -1.797770e+00
      vertex   1.202599e+00  2.718936e+00 -3.724991e-09
    endloop
  endfacet
  facet normal  6.509626e-01  6.509628e-01  3.905063e-01
    outer loop
      vertex  -2.307308e-08  5.000000e+00 -1.797770e+00
      vertex  -2.307464e-08  2.776447e+00  1.908829e+00
      vertex   1.202599e+00  2.718936e+00 -3.724991e-09
    endloop
  endfacet
  facet normal  6.509627e-01  6.509627e-01  3.905064e-01
    outer loop
      vertex   1.202599e+00  2.718936e+00 -3.724991e-09
      vertex  -2.307464e-08  2.776447e+00  1.908829e+00
      vertex   2.718936e+00  1.202599e+00 -3.724991e-09
    endloop
  endfacet
  facet normal  6.509627e-01  6.509627e-01  3.905063e-01
    outer loop
      vertex  -2.307464e-08  2.776447e+00  1.908829e+00
      vertex   2.776447e+00  2.116156e-07  1.908829e+00
      vertex   2.718936e+00  1.202599e+00 -3.724991e-09
    endloop
  endfacet
  facet normal  6.509628e-01  6.509625e-01  3.905063e-01
    outer loop
      vertex   2.718936e+00  1.202599e+00 -3.724991e-09
      vertex   2.776447e+00  2.116156e-07  1.908829e+00
      vertex   3.789410e+00  1.210590e+00 -1.797770e+00
    endloop
  endfacet
  facet normal  6.509627e-01  6.509627e-01  3.905063e-01
    outer loop
      vertex   2.776447e+00  2.116156e-07  1.908829e+00
      vertex   5.000000e+00  2.116162e-07 -1.797770e+00
      vertex   3.789410e+00  1.210590e+00 -1.797770e+00
    endloop
  endfacet
  facet normal -6.509625e-01 -6.509628e-01  3.905064e-01
    outer loop
      vertex  -1.210590e+00 -3.789410e+00 -1.797770e+00
      vertex  -2.307312e-08 -5.000000e+00 -1.797770e+00
      vertex  -1.202599e+00 -2.718936e+00 -3.724991e-09
    endloop
  endfacet
  facet normal -6.509627e-01 -6.509627e-01  3.905063e-01
    outer loop
      vertex  -2.307312e-08 -5.000000e+00 -1.797770e+00
      vertex  -2.307390e-08 -2.776446e+00  1.908829e+00
      vertex  -1.202599e+00 -2.718936e+00 -3.724991e-09
    endloop
  endfacet
  facet normal -6.509627e-01 -6.509627e-01  3.905064e-01
    outer loop
      vertex  -1.202599e+00 -2.718936e+00 -3.724991e-09
      vertex  -2.307390e-08 -2.776446e+00  1.908829e+00
      vertex  -2.718936e+00 -1.202599e+00 -3.724991e-09
    endloop
  endfacet
  facet normal -6.509627e-01 -6.509627e-01  3.905063e-01
    outer loop
      vertex  -2.307390e-08 -2.776446e+00  1.908829e+00
      vertex  -2.776447e+00  2.116146e-07  1.908829e+00
      vertex  -2.718936e+00 -1.202599e+00 -3.724991e-09
    endloop
  endfacet
  facet normal -6.509626e-01 -6.509627e-01  3.905064e-01
    outer loop
      vertex  -2.718936e+00 -1.202599e+00 -3.724991e-09
      vertex  -2.776447e+00  2.116146e-07  1.908829e+00
      vertex  -3.789410e+00 -1.210590e+00 -1.797770e+00
    endloop
  endfacet
  facet normal -6.509628e-01 -6.509625e-01  3.905064e-01
    outer loop
      vertex  -2.776447e+00  2.116146e-07  1.908829e+00
      vertex  -5.000000e+00  2.116163e-07 -1.797770e+00
      vertex  -3.789410e+00 -1.210590e+00 -1.797770e+00
    endloop
  endfacet
  facet normal  6.524130e-01  6.524388e-01 -3.855916e-01
    outer loop
      vertex   1.202599e+00 -2.718936e+00 -3.724991e-09
      vertex   1.210590e+00 -3.789410e+00 -1.797770e+00
      vertex   4.764780e-06 -1.516400e+00 -1.665112e-05
    endloop
  endfacet
  facet normal  6.524321e-01  6.524322e-01 -3.855705e-01
    outer loop
      vertex   1.210590e+00 -3.789410e+00 -1.797770e+00
      vertex  -2.307330e-08 -2.578821e+00 -1.797770e+00
      vertex   4.764780e-06 -1.516400e+00 -1.665112e-05
    endloop
  endfacet
  facet normal -6.509626e-01 -6.509627e-01  3.905064e-01
    outer loop
      vertex  -2.307362e-08 -2.602003e+00  2.179622e+00
      vertex   2.077020e-07 -1.203895e+00  4.510226e+00
      vertex  -2.602003e+00  2.116158e-07  2.179622e+00
    endloop
  endfacet
  facet normal -6.509626e-01 -6.509628e-01  3.905064e-01
    outer loop
      vertex   2.077020e-07 -1.203895e+00  4.510226e+00
      vertex  -1.203895e+00 -1.915979e-08  4.510227e+00
      vertex  -2.602003e+00  2.116158e-07  2.179622e+00
    endloop
  endfacet
  facet normal  6.509627e-01 -6.509627e-01  3.905063e-01
    outer loop
      vertex   2.602003e+00  2.116158e-07  2.179622e+00
      vertex   1.203895e+00 -1.916002e-08  4.510226e+00
      vertex  -2.307362e-08 -2.602003e+00  2.179622e+00
    endloop
  endfacet
  facet normal  6.509627e-01 -6.509627e-01  3.905063e-01
    outer loop
      vertex   1.203895e+00 -1.916002e-08  4.510226e+00
      vertex   2.077020e-07 -1.203895e+00  4.510226e+00
      vertex  -2.307362e-08 -2.602003e+00  2.179622e+00
    endloop
  endfacet
  facet normal  1.980393e-07  1.980393e-07  1.000000e+00
    outer loop
      vertex   2.077027e-07  1.203895e+00  4.510226e+00
      vertex  -1.203895e+00 -1.915979e-08  4.510227e+00
      vertex   1.203895e+00 -1.916002e-08  4.510226e+00
    endloop
  endfacet
  facet normal  1.980393e-07 -1.980393e-07  1.000000e+00
    outer loop
      vertex  -1.203895e+00 -1.915979e-08  4.510227e+00
      vertex   2.077020e-07 -1.203895e+00  4.510226e+00
      vertex   1.203895e+00 -1.916002e-08  4.510226e+00
    endloop
  endfacet
  facet normal  6.509627e-01  6.509626e-01  3.905064e-01
    outer loop
      vertex  -2.307352e-08  2.602003e+00  2.179622e+00
      vertex   2.077027e-07  1.203895e+00  4.510226e+00
      vertex   2.602003e+00  2.116158e-07  2.179622e+00
    endloop
  endfacet
  facet normal  6.509627e-01  6.509627e-01  3.905064e-01
    outer loop
      vertex   2.077027e-07  1.203895e+00  4.510226e+00
      vertex   1.203895e+00 -1.916002e-08  4.510226e+00
      vertex   2.602003e+00  2.116158e-07  2.179622e+00
    endloop
  endfacet
  facet normal -9.162887e-08  9.162887e-08 -1.000000e+00
    outer loop
      vertex  -2.602003e+00  2.116158e-07  2.179622e+00
      vertex  -2.307352e-08  2.602003e+00  2.179622e+00
      vertex  -2.307362e-08 -2.602003e+00  2.179622e+00
    endloop
  endfacet
  facet normal -9.162887e-08  9.162887e-08 -1.000000e+00
    outer loop
      vertex  -2.307352e-08  2.602003e+00  2.179622e+00
      vertex   2.602003e+00  2.116158e-07  2.179622e+00
      vertex  -2.307362e-08 -2.602003e+00  2.179622e+00
    endloop
  endfacet
  facet normal -6.509626e-01  6.509626e-01  3.905065e-01
    outer loop
      vertex  -2.602003e+00  2.116158e-07  2.179622e+00
      vertex  -1.203895e+00 -1.915979e-08  4.510227e+00
      vertex  -2.307352e-08  2.602003e+00  2.179622e+00
    endloop
  endfacet
  facet normal -6.509625e-01  6.509627e-01  3.905066e-01
    outer loop
      vertex  -1.203895e+00 -1.915979e-08  4.510227e+00
      vertex   2.077027e-07  1.203895e+00  4.510226e+00
      vertex  -2.307352e-08  2.602003e+00  2.179622e+00
    endloop
  endfacet
  facet normal -6.509626e-01 -6.509626e-01  3.905065e-01
    outer loop
      vertex  -2.307347e-08 -2.776446e+00  1.898829e+00
      vertex  -2.307796e-08 -2.602002e+00  2.189622e+00
      vertex  -2.776447e+00  2.116159e-07  1.898829e+00
    endloop
  endfacet
  facet normal -6.509626e-01 -6.509626e-01  3.905065e-01
    outer loop
      vertex  -2.307796e-08 -2.602002e+00  2.189622e+00
      vertex  -2.602003e+00  2.116195e-07  2.189622e+00
      vertex  -2.776447e+00  2.116159e-07  1.898829e+00
    endloop
  endfacet
  facet normal  6.509626e-01 -6.509626e-01  3.905065e-01
    outer loop
      vertex   2.776447e+00  2.116159e-07  1.898829e+00
      vertex   2.602003e+00  2.116123e-07  2.189622e+00
      vertex  -2.307347e-08 -2.776446e+00  1.898829e+00
    endloop
  endfacet
  facet normal  6.509626e-01 -6.509626e-01  3.905065e-01
    outer loop
      vertex   2.602003e+00  2.116123e-07  2.189622e+00
      vertex  -2.307796e-08 -2.602002e+00  2.189622e+00
      vertex  -2.307347e-08 -2.776446e+00  1.898829e+00
    endloop
  endfacet
  facet normal  6.509626e-01  6.509626e-01  3.905065e-01
    outer loop
      vertex  -2.307351e-08  2.776447e+00  1.898829e+00
      vertex  -2.306902e-08  2.602003e+00  2.189622e+00
      vertex   2.776447e+00  2.116159e-07  1.898829e+00
    endloop
  endfacet
  facet normal  6.509626e-01  6.509626e-01  3.905065e-01
    outer loop
      vertex  -2.306902e-08  2.602003e+00  2.189622e+00
      vertex   2.602003e+00  2.116123e-07  2.189622e+00
      vertex   2.776447e+00  2.116159e-07  1.898829e+00
    endloop
  endfacet
  facet normal -6.509626e-01  6.509626e-01  3.905065e-01
    outer loop
      vertex  -2.776447e+00  2.116159e-07  1.898829e+00
      vertex  -2.602003e+00  2.116195e-07  2.189622e+00
      vertex  -2.307351e-08  2.776447e+00  1.898829e+00
    endloop
  endfacet
  facet normal -6.509626e-01  6.509626e-01  3.905065e-01
    outer loop
      vertex  -2.602003e+00  2.116195e-07  2.189622e+00
      vertex  -2.306902e-08  2.602003e+00  2.189622e+00
      vertex  -2.307351e-08  2.776447e+00  1.898829e+00
    endloop
  endfacet
  facet normal  0.000000e+00  0.000000e+00 -1.000000e+00
    outer loop
      vertex  -2.776447e+00  2.116159e-07  1.898829e+00
      vertex  -2.307351e-08  2.776447e+00  1.898829e+00
      vertex  -2.307347e-08 -2.776446e+00  1.898829e+00
    endloop
  endfacet
  facet normal  0.000000e+00  0.000000e+00 -1.000000e+00
    outer loop
      vertex  -2.307351e-08  2.776447e+00  1.898829e+00
      vertex   2.776447e+00  2.116159e-07  1.898829e+00
      vertex  -2.307347e-08 -2.776446e+00  1.898829e+00
    endloop
  endfacet
  facet normal -0.000000e+00  0.000000e+00  1.000000e+00
    outer loop
      vertex  -2.602003e+00  2.116195e-07  2.189622e+00
      vertex  -2.307796e-08 -2.602002e+00  2.189622e+00
      vertex  -2.306902e-08  2.602003e+00  2.189622e+00
    endloop
  endfacet
  facet normal  0.000000e+00  0.000000e+00  1.000000e+00
    outer loop
      vertex  -2.307796e-08 -2.602002e+00  2.189622e+00
      vertex   2.602003e+00  2.116123e-07  2.189622e+00
      vertex  -2.306902e-08  2.602003e+00  2.189622e+00
    endloop
  endfacet
endsolid vcg
