solid STL generated by MeshLab
  facet normal  0.000000e+00 -9.208161e-01  3.899971e-01
    outer loop
      vertex   1.839894e+00 -1.839894e+00  3.107927e-01
      vertex   4.000246e-03 -4.000322e-03  4.645493e+00
      vertex  -1.839894e+00 -1.839894e+00  3.107927e-01
    endloop
  endfacet
  facet normal  0.000000e+00 -9.208161e-01  3.899971e-01
    outer loop
      vertex   4.000246e-03 -4.000322e-03  4.645493e+00
      vertex  -4.000704e-03 -4.000322e-03  4.645493e+00
      vertex  -1.839894e+00 -1.839894e+00  3.107927e-01
    endloop
  endfacet
  facet normal  9.208161e-01  0.000000e+00  3.899971e-01
    outer loop
      vertex   1.839894e+00  1.839894e+00  3.107927e-01
      vertex   4.000246e-03  4.000627e-03  4.645493e+00
      vertex   1.839894e+00 -1.839894e+00  3.107927e-01
    endloop
  endfacet
  facet normal  9.208161e-01  0.000000e+00  3.899971e-01
    outer loop
      vertex   4.000246e-03  4.000627e-03  4.645493e+00
      vertex   4.000246e-03 -4.000322e-03  4.645493e+00
      vertex   1.839894e+00 -1.839894e+00  3.107927e-01
    endloop
  endfacet
  facet normal -0.000000e+00  0.000000e+00  1.000000e+00
    outer loop
      vertex  -4.000704e-03  4.000627e-03  4.645493e+00
      vertex  -4.000704e-03 -4.000322e-03  4.645493e+00
      vertex   4.000246e-03  4.000627e-03  4.645493e+00
    endloop
  endfacet
  facet normal  0.000000e+00  0.000000e+00  1.000000e+00
    outer loop
      vertex  -4.000704e-03 -4.000322e-03  4.645493e+00
      vertex   4.000246e-03 -4.000322e-03  4.645493e+00
      vertex   4.000246e-03  4.000627e-03  4.645493e+00
    endloop
  endfacet
  facet normal -0.000000e+00  9.208161e-01  3.899970e-01
    outer loop
      vertex  -1.839894e+00  1.839894e+00  3.107927e-01
      vertex  -4.000704e-03  4.000627e-03  4.645493e+00
      vertex   1.839894e+00  1.839894e+00  3.107927e-01
    endloop
  endfacet
  facet normal -0.000000e+00  9.208161e-01  3.899971e-01
    outer loop
      vertex  -4.000704e-03  4.000627e-03  4.645493e+00
      vertex   4.000246e-03  4.000627e-03  4.645493e+00
      vertex   1.839894e+00  1.839894e+00  3.107927e-01
    endloop
  endfacet
  facet normal  0.000000e+00  0.000000e+00 -1.000000e+00
    outer loop
      vertex  -1.839894e+00 -1.839894e+00  3.107927e-01
      vertex  -1.839894e+00  1.839894e+00  3.107927e-01
      vertex   1.839894e+00 -1.839894e+00  3.107927e-01
    endloop
  endfacet
  facet normal  0.000000e+00  0.000000e+00 -1.000000e+00
    outer loop
      vertex  -1.839894e+00  1.839894e+00  3.107927e-01
      vertex   1.839894e+00  1.839894e+00  3.107927e-01
      vertex   1.839894e+00 -1.839894e+00  3.107927e-01
    endloop
  endfacet
  facet normal -9.208161e-01  0.000000e+00  3.899970e-01
    outer loop
      vertex  -1.839894e+00 -1.839894e+00  3.107927e-01
      vertex  -4.000704e-03 -4.000322e-03  4.645493e+00
      vertex  -1.839894e+00  1.839894e+00  3.107927e-01
    endloop
  endfacet
  facet normal -9.208161e-01  0.000000e+00  3.899971e-01
    outer loop
      vertex  -4.000704e-03 -4.000322e-03  4.645493e+00
      vertex  -4.000704e-03  4.000627e-03  4.645493e+00
      vertex  -1.839894e+00  1.839894e+00  3.107927e-01
    endloop
  endfacet
  facet normal  0.000000e+00 -9.206000e-01  3.905070e-01
    outer loop
      vertex   1.963244e+00 -1.963244e+00  9.999990e-03
      vertex   1.839894e+00 -1.839894e+00  3.007927e-01
      vertex  -1.963244e+00 -1.963244e+00  9.999990e-03
    endloop
  endfacet
  facet normal  0.000000e+00 -9.206000e-01  3.905069e-01
    outer loop
      vertex   1.839894e+00 -1.839894e+00  3.007927e-01
      vertex  -1.839894e+00 -1.839894e+00  3.007927e-01
      vertex  -1.963244e+00 -1.963244e+00  9.999990e-03
    endloop
  endfacet
  facet normal  9.206000e-01  0.000000e+00  3.905070e-01
    outer loop
      vertex   1.963244e+00  1.963244e+00  9.999990e-03
      vertex   1.839894e+00  1.839894e+00  3.007927e-01
      vertex   1.963244e+00 -1.963244e+00  9.999990e-03
    endloop
  endfacet
  facet normal  9.206000e-01  0.000000e+00  3.905069e-01
    outer loop
      vertex   1.839894e+00  1.839894e+00  3.007927e-01
      vertex   1.839894e+00 -1.839894e+00  3.007927e-01
      vertex   1.963244e+00 -1.963244e+00  9.999990e-03
    endloop
  endfacet
  facet normal -0.000000e+00  9.206000e-01  3.905070e-01
    outer loop
      vertex  -1.963244e+00  1.963244e+00  9.999990e-03
      vertex  -1.839894e+00  1.839894e+00  3.007927e-01
      vertex   1.963244e+00  1.963244e+00  9.999990e-03
    endloop
  endfacet
  facet normal -0.000000e+00  9.206000e-01  3.905069e-01
    outer loop
      vertex  -1.839894e+00  1.839894e+00  3.007927e-01
      vertex   1.839894e+00  1.839894e+00  3.007927e-01
      vertex   1.963244e+00  1.963244e+00  9.999990e-03
    endloop
  endfacet
  facet normal -9.206000e-01  0.000000e+00  3.905070e-01
    outer loop
      vertex  -1.963244e+00 -1.963244e+00  9.999990e-03
      vertex  -1.839894e+00 -1.839894e+00  3.007927e-01
      vertex  -1.963244e+00  1.963244e+00  9.999990e-03
    endloop
  endfacet
  facet normal -9.206000e-01  0.000000e+00  3.905069e-01
    outer loop
      vertex  -1.839894e+00 -1.839894e+00  3.007927e-01
      vertex  -1.839894e+00  1.839894e+00  3.007927e-01
      vertex  -1.963244e+00  1.963244e+00  9.999990e-03
    endloop
  endfacet
  facet normal  0.000000e+00  0.000000e+00 -1.000000e+00
    outer loop
      vertex  -1.963244e+00 -1.963244e+00  9.999990e-03
      vertex  -1.963244e+00  1.963244e+00  9.999990e-03
      vertex   1.963244e+00 -1.963244e+00  9.999990e-03
    endloop
  endfacet
  facet normal  0.000000e+00  0.000000e+00 -1.000000e+00
    outer loop
      vertex  -1.963244e+00  1.963244e+00  9.999990e-03
      vertex   1.963244e+00  1.963244e+00  9.999990e-03
      vertex   1.963244e+00 -1.963244e+00  9.999990e-03
    endloop
  endfacet
  facet normal  0.000000e+00  0.000000e+00  1.000000e+00
    outer loop
      vertex  -1.839894e+00 -1.839894e+00  3.007927e-01
      vertex   1.839894e+00 -1.839894e+00  3.007927e-01
      vertex  -1.839894e+00  1.839894e+00  3.007927e-01
    endloop
  endfacet
  facet normal  0.000000e+00 -0.000000e+00  1.000000e+00
    outer loop
      vertex   1.839894e+00 -1.839894e+00  3.007927e-01
      vertex   1.839894e+00  1.839894e+00  3.007927e-01
      vertex  -1.839894e+00  1.839894e+00  3.007927e-01
    endloop
  endfacet
  facet normal -0.000000e+00 -0.000000e+00 -1.000000e+00
    outer loop
      vertex   1.072213e+00  2.772944e+00 -1.908829e+00
      vertex   1.072213e+00  1.072212e+00 -1.908829e+00
      vertex  -1.072212e+00  2.772944e+00 -1.908829e+00
    endloop
  endfacet
  facet normal  0.000000e+00  0.000000e+00 -1.000000e+00
    outer loop
      vertex   1.072213e+00  1.072212e+00 -1.908829e+00
      vertex  -1.072212e+00  1.072212e+00 -1.908829e+00
      vertex  -1.072212e+00  2.772944e+00 -1.908829e+00
    endloop
  endfacet
  facet normal  0.000000e+00  0.000000e+00 -1.000000e+00
    outer loop
      vertex  -1.072212e+00 -2.772944e+00 -1.908829e+00
      vertex  -1.072212e+00 -1.072213e+00 -1.908829e+00
      vertex   1.072213e+00 -2.772944e+00 -1.908829e+00
    endloop
  endfacet
  facet normal  0.000000e+00  0.000000e+00 -1.000000e+00
    outer loop
      vertex  -1.072212e+00 -1.072213e+00 -1.908829e+00
      vertex   1.072213e+00 -1.072213e+00 -1.908829e+00
      vertex   1.072213e+00 -2.772944e+00 -1.908829e+00
    endloop
  endfacet
  facet normal  0.000000e+00  0.000000e+00 -1.000000e+00
    outer loop
      vertex  -2.772944e+00 -1.072213e+00 -1.908829e+00
      vertex  -2.772944e+00  1.072212e+00 -1.908829e+00
      vertex  -1.072212e+00 -1.072213e+00 -1.908829e+00
    endloop
  endfacet
  facet normal  0.000000e+00  0.000000e+00 -1.000000e+00
    outer loop
      vertex  -2.772944e+00  1.072212e+00 -1.908829e+00
      vertex  -1.072212e+00  1.072212e+00 -1.908829e+00
      vertex  -1.072212e+00 -1.072213e+00 -1.908829e+00
    endloop
  endfacet
  facet normal  0.000000e+00  0.000000e+00 -1.000000e+00
    outer loop
      vertex  -1.072212e+00 -1.072213e+00 -1.908829e+00
      vertex  -1.072212e+00  1.072212e+00 -1.908829e+00
      vertex   1.072213e+00 -1.072213e+00 -1.908829e+00
    endloop
  endfacet
  facet normal  0.000000e+00  0.000000e+00 -1.000000e+00
    outer loop
      vertex  -1.072212e+00  1.072212e+00 -1.908829e+00
      vertex   1.072213e+00  1.072212e+00 -1.908829e+00
      vertex   1.072213e+00 -1.072213e+00 -1.908829e+00
    endloop
  endfacet
  facet normal  0.000000e+00  0.000000e+00 -1.000000e+00
    outer loop
      vertex   1.072213e+00 -1.072213e+00 -1.908829e+00
      vertex   1.072213e+00  1.072212e+00 -1.908829e+00
      vertex   2.772944e+00 -1.072213e+00 -1.908829e+00
    endloop
  endfacet
  facet normal  0.000000e+00  0.000000e+00 -1.000000e+00
    outer loop
      vertex   1.072213e+00  1.072212e+00 -1.908829e+00
      vertex   2.772944e+00  1.072212e+00 -1.908829e+00
      vertex   2.772944e+00 -1.072213e+00 -1.908829e+00
    endloop
  endfacet
  facet normal -9.206002e-01  0.000000e+00  3.905063e-01
    outer loop
      vertex  -3.535534e+00 -1.823502e+00 -3.706599e+00
      vertex  -3.535534e+00 -3.535534e+00 -3.706599e+00
      vertex  -2.772944e+00 -1.072213e+00 -1.908829e+00
    endloop
  endfacet
  facet normal -9.206002e-01  3.481768e-08  3.905063e-01
    outer loop
      vertex  -3.535534e+00 -3.535534e+00 -3.706599e+00
      vertex  -1.963244e+00 -1.963244e+00 -1.094299e-08
      vertex  -2.772944e+00 -1.072213e+00 -1.908829e+00
    endloop
  endfacet
  facet normal -9.206002e-01  0.000000e+00  3.905062e-01
    outer loop
      vertex  -2.772944e+00 -1.072213e+00 -1.908829e+00
      vertex  -1.963244e+00 -1.963244e+00 -1.094299e-08
      vertex  -2.772944e+00  1.072212e+00 -1.908829e+00
    endloop
  endfacet
  facet normal -9.206003e-01  0.000000e+00  3.905063e-01
    outer loop
      vertex  -1.963244e+00 -1.963244e+00 -1.094299e-08
      vertex  -1.963244e+00  1.963244e+00 -1.094299e-08
      vertex  -2.772944e+00  1.072212e+00 -1.908829e+00
    endloop
  endfacet
  facet normal -9.206003e-01 -7.229630e-08  3.905063e-01
    outer loop
      vertex  -2.772944e+00  1.072212e+00 -1.908829e+00
      vertex  -1.963244e+00  1.963244e+00 -1.094299e-08
      vertex  -3.535534e+00  1.823501e+00 -3.706599e+00
    endloop
  endfacet
  facet normal -9.206002e-01  0.000000e+00  3.905063e-01
    outer loop
      vertex  -1.963244e+00  1.963244e+00 -1.094299e-08
      vertex  -3.535534e+00  3.535534e+00 -3.706599e+00
      vertex  -3.535534e+00  1.823501e+00 -3.706599e+00
    endloop
  endfacet
  facet normal  0.000000e+00  0.000000e+00 -1.000000e+00
    outer loop
      vertex  -3.535534e+00 -3.535534e+00 -3.706599e+00
      vertex  -3.535534e+00 -1.823502e+00 -3.706599e+00
      vertex  -1.823501e+00 -3.535534e+00 -3.706599e+00
    endloop
  endfacet
  facet normal  0.000000e+00  0.000000e+00 -1.000000e+00
    outer loop
      vertex  -3.535534e+00 -1.823502e+00 -3.706599e+00
      vertex  -1.823501e+00 -1.823502e+00 -3.706599e+00
      vertex  -1.823501e+00 -3.535534e+00 -3.706599e+00
    endloop
  endfacet
  facet normal  9.226722e-01  1.927377e-07 -3.855853e-01
    outer loop
      vertex  -1.823501e+00 -1.823502e+00 -3.706599e+00
      vertex  -1.072212e+00 -1.072213e+00 -1.908829e+00
      vertex  -1.823501e+00 -3.535534e+00 -3.706599e+00
    endloop
  endfacet
  facet normal  9.226723e-01  0.000000e+00 -3.855851e-01
    outer loop
      vertex  -1.072212e+00 -1.072213e+00 -1.908829e+00
      vertex  -1.072212e+00 -2.772944e+00 -1.908829e+00
      vertex  -1.823501e+00 -3.535534e+00 -3.706599e+00
    endloop
  endfacet
  facet normal -9.226723e-01  0.000000e+00 -3.855851e-01
    outer loop
      vertex   1.823502e+00 -3.535534e+00 -3.706599e+00
      vertex   1.072213e+00 -2.772944e+00 -1.908829e+00
      vertex   1.823502e+00 -1.823502e+00 -3.706599e+00
    endloop
  endfacet
  facet normal -9.226723e-01  0.000000e+00 -3.855851e-01
    outer loop
      vertex   1.072213e+00 -2.772944e+00 -1.908829e+00
      vertex   1.072213e+00 -1.072213e+00 -1.908829e+00
      vertex   1.823502e+00 -1.823502e+00 -3.706599e+00
    endloop
  endfacet
  facet normal -0.000000e+00 -9.226723e-01 -3.855851e-01
    outer loop
      vertex  -1.823501e+00  1.823501e+00 -3.706599e+00
      vertex  -1.072212e+00  1.072212e+00 -1.908829e+00
      vertex  -3.535534e+00  1.823501e+00 -3.706599e+00
    endloop
  endfacet
  facet normal -0.000000e+00 -9.226723e-01 -3.855851e-01
    outer loop
      vertex  -1.072212e+00  1.072212e+00 -1.908829e+00
      vertex  -2.772944e+00  1.072212e+00 -1.908829e+00
      vertex  -3.535534e+00  1.823501e+00 -3.706599e+00
    endloop
  endfacet
  facet normal  0.000000e+00  0.000000e+00  1.000000e+00
    outer loop
      vertex  -1.963244e+00 -1.963244e+00 -1.094299e-08
      vertex   1.963244e+00 -1.963244e+00 -1.094299e-08
      vertex  -1.963244e+00  1.963244e+00 -1.094299e-08
    endloop
  endfacet
  facet normal  0.000000e+00 -0.000000e+00  1.000000e+00
    outer loop
      vertex   1.963244e+00 -1.963244e+00 -1.094299e-08
      vertex   1.963244e+00  1.963244e+00 -1.094299e-08
      vertex  -1.963244e+00  1.963244e+00 -1.094299e-08
    endloop
  endfacet
  facet normal  0.000000e+00  9.226723e-01 -3.855851e-01
    outer loop
      vertex  -1.072212e+00 -1.072213e+00 -1.908829e+00
      vertex  -1.823501e+00 -1.823502e+00 -3.706599e+00
      vertex  -2.772944e+00 -1.072213e+00 -1.908829e+00
    endloop
  endfacet
  facet normal  0.000000e+00  9.226723e-01 -3.855851e-01
    outer loop
      vertex  -1.823501e+00 -1.823502e+00 -3.706599e+00
      vertex  -3.535534e+00 -1.823502e+00 -3.706599e+00
      vertex  -2.772944e+00 -1.072213e+00 -1.908829e+00
    endloop
  endfacet
  facet normal  0.000000e+00  0.000000e+00 -1.000000e+00
    outer loop
      vertex  -3.535534e+00  1.823501e+00 -3.706599e+00
      vertex  -3.535534e+00  3.535534e+00 -3.706599e+00
      vertex  -1.823501e+00  1.823501e+00 -3.706599e+00
    endloop
  endfacet
  facet normal  0.000000e+00  0.000000e+00 -1.000000e+00
    outer loop
      vertex  -3.535534e+00  3.535534e+00 -3.706599e+00
      vertex  -1.823501e+00  3.535534e+00 -3.706599e+00
      vertex  -1.823501e+00  1.823501e+00 -3.706599e+00
    endloop
  endfacet
  facet normal  9.226723e-01  0.000000e+00 -3.855851e-01
    outer loop
      vertex  -1.072212e+00  2.772944e+00 -1.908829e+00
      vertex  -1.072212e+00  1.072212e+00 -1.908829e+00
      vertex  -1.823501e+00  3.535534e+00 -3.706599e+00
    endloop
  endfacet
  facet normal  9.226723e-01  0.000000e+00 -3.855851e-01
    outer loop
      vertex  -1.072212e+00  1.072212e+00 -1.908829e+00
      vertex  -1.823501e+00  1.823501e+00 -3.706599e+00
      vertex  -1.823501e+00  3.535534e+00 -3.706599e+00
    endloop
  endfacet
  facet normal  0.000000e+00  0.000000e+00 -1.000000e+00
    outer loop
      vertex   1.823502e+00 -3.535534e+00 -3.706599e+00
      vertex   1.823502e+00 -1.823502e+00 -3.706599e+00
      vertex   3.535534e+00 -3.535534e+00 -3.706599e+00
    endloop
  endfacet
  facet normal  0.000000e+00  0.000000e+00 -1.000000e+00
    outer loop
      vertex   1.823502e+00 -1.823502e+00 -3.706599e+00
      vertex   3.535534e+00 -1.823502e+00 -3.706599e+00
      vertex   3.535534e+00 -3.535534e+00 -3.706599e+00
    endloop
  endfacet
  facet normal  0.000000e+00 -9.226723e-01 -3.855851e-01
    outer loop
      vertex   1.072213e+00  1.072212e+00 -1.908829e+00
      vertex   1.823502e+00  1.823501e+00 -3.706599e+00
      vertex   2.772944e+00  1.072212e+00 -1.908829e+00
    endloop
  endfacet
  facet normal  0.000000e+00 -9.226723e-01 -3.855851e-01
    outer loop
      vertex   1.823502e+00  1.823501e+00 -3.706599e+00
      vertex   3.535534e+00  1.823501e+00 -3.706599e+00
      vertex   2.772944e+00  1.072212e+00 -1.908829e+00
    endloop
  endfacet
  facet normal  0.000000e+00  0.000000e+00 -1.000000e+00
    outer loop
      vertex   1.823502e+00  3.535534e+00 -3.706599e+00
      vertex   3.535534e+00  3.535534e+00 -3.706599e+00
      vertex   1.823502e+00  1.823501e+00 -3.706599e+00
    endloop
  endfacet
  facet normal  0.000000e+00 -0.000000e+00 -1.000000e+00
    outer loop
      vertex   3.535534e+00  3.535534e+00 -3.706599e+00
      vertex   3.535534e+00  1.823501e+00 -3.706599e+00
      vertex   1.823502e+00  1.823501e+00 -3.706599e+00
    endloop
  endfacet
  facet normal  9.206002e-01 -0.000000e+00  3.905063e-01
    outer loop
      vertex   3.535534e+00  1.823501e+00 -3.706599e+00
      vertex   3.535534e+00  3.535534e+00 -3.706599e+00
      vertex   2.772944e+00  1.072212e+00 -1.908829e+00
    endloop
  endfacet
  facet normal  9.206002e-01 -3.481767e-08  3.905063e-01
    outer loop
      vertex   3.535534e+00  3.535534e+00 -3.706599e+00
      vertex   1.963244e+00  1.963244e+00 -1.094299e-08
      vertex   2.772944e+00  1.072212e+00 -1.908829e+00
    endloop
  endfacet
  facet normal  9.206002e-01  0.000000e+00  3.905062e-01
    outer loop
      vertex   2.772944e+00  1.072212e+00 -1.908829e+00
      vertex   1.963244e+00  1.963244e+00 -1.094299e-08
      vertex   2.772944e+00 -1.072213e+00 -1.908829e+00
    endloop
  endfacet
  facet normal  9.206003e-01  0.000000e+00  3.905063e-01
    outer loop
      vertex   1.963244e+00  1.963244e+00 -1.094299e-08
      vertex   1.963244e+00 -1.963244e+00 -1.094299e-08
      vertex   2.772944e+00 -1.072213e+00 -1.908829e+00
    endloop
  endfacet
  facet normal  9.206003e-01  7.229632e-08  3.905063e-01
    outer loop
      vertex   2.772944e+00 -1.072213e+00 -1.908829e+00
      vertex   1.963244e+00 -1.963244e+00 -1.094299e-08
      vertex   3.535534e+00 -1.823502e+00 -3.706599e+00
    endloop
  endfacet
  facet normal  9.206002e-01  0.000000e+00  3.905063e-01
    outer loop
      vertex   1.963244e+00 -1.963244e+00 -1.094299e-08
      vertex   3.535534e+00 -3.535534e+00 -3.706599e+00
      vertex   3.535534e+00 -1.823502e+00 -3.706599e+00
    endloop
  endfacet
  facet normal -9.226723e-01 -0.000000e+00 -3.855851e-01
    outer loop
      vertex   1.823502e+00  3.535534e+00 -3.706599e+00
      vertex   1.823502e+00  1.823501e+00 -3.706599e+00
      vertex   1.072213e+00  2.772944e+00 -1.908829e+00
    endloop
  endfacet
  facet normal -9.226723e-01  0.000000e+00 -3.855851e-01
    outer loop
      vertex   1.823502e+00  1.823501e+00 -3.706599e+00
      vertex   1.072213e+00  1.072212e+00 -1.908829e+00
      vertex   1.072213e+00  2.772944e+00 -1.908829e+00
    endloop
  endfacet
  facet normal  0.000000e+00  9.206002e-01  3.905063e-01
    outer loop
      vertex  -1.823501e+00  3.535534e+00 -3.706599e+00
      vertex  -3.535534e+00  3.535534e+00 -3.706599e+00
      vertex  -1.072212e+00  2.772944e+00 -1.908829e+00
    endloop
  endfacet
  facet normal  3.481767e-08  9.206002e-01  3.905063e-01
    outer loop
      vertex  -3.535534e+00  3.535534e+00 -3.706599e+00
      vertex  -1.963244e+00  1.963244e+00 -1.094299e-08
      vertex  -1.072212e+00  2.772944e+00 -1.908829e+00
    endloop
  endfacet
  facet normal -0.000000e+00  9.206002e-01  3.905062e-01
    outer loop
      vertex  -1.072212e+00  2.772944e+00 -1.908829e+00
      vertex  -1.963244e+00  1.963244e+00 -1.094299e-08
      vertex   1.072213e+00  2.772944e+00 -1.908829e+00
    endloop
  endfacet
  facet normal -0.000000e+00  9.206003e-01  3.905063e-01
    outer loop
      vertex  -1.963244e+00  1.963244e+00 -1.094299e-08
      vertex   1.963244e+00  1.963244e+00 -1.094299e-08
      vertex   1.072213e+00  2.772944e+00 -1.908829e+00
    endloop
  endfacet
  facet normal -7.229632e-08  9.206003e-01  3.905063e-01
    outer loop
      vertex   1.072213e+00  2.772944e+00 -1.908829e+00
      vertex   1.963244e+00  1.963244e+00 -1.094299e-08
      vertex   1.823502e+00  3.535534e+00 -3.706599e+00
    endloop
  endfacet
  facet normal  0.000000e+00  9.206002e-01  3.905063e-01
    outer loop
      vertex   1.963244e+00  1.963244e+00 -1.094299e-08
      vertex   3.535534e+00  3.535534e+00 -3.706599e+00
      vertex   1.823502e+00  3.535534e+00 -3.706599e+00
    endloop
  endfacet
  facet normal  0.000000e+00 -9.206002e-01  3.905063e-01
    outer loop
      vertex   1.823502e+00 -3.535534e+00 -3.706599e+00
      vertex   3.535534e+00 -3.535534e+00 -3.706599e+00
      vertex   1.072213e+00 -2.772944e+00 -1.908829e+00
    endloop
  endfacet
  facet normal -3.481768e-08 -9.206002e-01  3.905063e-01
    outer loop
      vertex   3.535534e+00 -3.535534e+00 -3.706599e+00
      vertex   1.963244e+00 -1.963244e+00 -1.094299e-08
      vertex   1.072213e+00 -2.772944e+00 -1.908829e+00
    endloop
  endfacet
  facet normal  0.000000e+00 -9.206002e-01  3.905062e-01
    outer loop
      vertex   1.072213e+00 -2.772944e+00 -1.908829e+00
      vertex   1.963244e+00 -1.963244e+00 -1.094299e-08
      vertex  -1.072212e+00 -2.772944e+00 -1.908829e+00
    endloop
  endfacet
  facet normal  0.000000e+00 -9.206003e-01  3.905063e-01
    outer loop
      vertex   1.963244e+00 -1.963244e+00 -1.094299e-08
      vertex  -1.963244e+00 -1.963244e+00 -1.094299e-08
      vertex  -1.072212e+00 -2.772944e+00 -1.908829e+00
    endloop
  endfacet
  facet normal  7.229630e-08 -9.206003e-01  3.905063e-01
    outer loop
      vertex  -1.072212e+00 -2.772944e+00 -1.908829e+00
      vertex  -1.963244e+00 -1.963244e+00 -1.094299e-08
      vertex  -1.823501e+00 -3.535534e+00 -3.706599e+00
    endloop
  endfacet
  facet normal  0.000000e+00 -9.206002e-01  3.905063e-01
    outer loop
      vertex  -1.963244e+00 -1.963244e+00 -1.094299e-08
      vertex  -3.535534e+00 -3.535534e+00 -3.706599e+00
      vertex  -1.823501e+00 -3.535534e+00 -3.706599e+00
    endloop
  endfacet
  facet normal  0.000000e+00  9.226723e-01 -3.855851e-01
    outer loop
      vertex   2.772944e+00 -1.072213e+00 -1.908829e+00
      vertex   3.535534e+00 -1.823502e+00 -3.706599e+00
      vertex   1.072213e+00 -1.072213e+00 -1.908829e+00
    endloop
  endfacet
  facet normal  0.000000e+00  9.226723e-01 -3.855851e-01
    outer loop
      vertex   3.535534e+00 -1.823502e+00 -3.706599e+00
      vertex   1.823502e+00 -1.823502e+00 -3.706599e+00
      vertex   1.072213e+00 -1.072213e+00 -1.908829e+00
    endloop
  endfacet
endsolid vcg
